<svg xmlns="http://www.w3.org/2000/svg" viewBox="0 0 1600 520" width="1600" height="520" fill="none">
  <defs>
    <filter id="titleShadow" x="-10%" y="-20%" width="130%" height="150%">
      <feDropShadow dx="0" dy="16" stdDeviation="16" flood-color="#000000" flood-opacity="0.3"/>
    </filter>
    <filter id="techGlow" x="-50%" y="-50%" width="200%" height="200%">
      <feGaussianBlur stdDeviation="4" result="blur"/>
      <feMerge>
        <feMergeNode in="blur"/>
        <feMergeNode in="SourceGraphic"/>
      </feMerge>
    </filter>
    <linearGradient id="burntMetal" x1="120" y1="90" x2="372" y2="372" gradientUnits="userSpaceOnUse">
      <stop offset="0%" stop-color="#f4c885"/>
      <stop offset="45%" stop-color="#d5752d"/>
      <stop offset="100%" stop-color="#6f2a16"/>
    </linearGradient>
    <linearGradient id="sandText" x1="466" y1="118" x2="1294" y2="426" gradientUnits="userSpaceOnUse">
      <stop offset="0%" stop-color="#f6ead7"/>
      <stop offset="100%" stop-color="#f4c885"/>
    </linearGradient>
  </defs>

  <g filter="url(#titleShadow)">
    <g transform="translate(32 34) scale(0.9)">
      <circle cx="250" cy="250" r="230" fill="#0d0a08" stroke="#d5752d" stroke-width="12"/>
      <circle cx="250" cy="250" r="214" fill="#120b08" stroke="#2b1a12" stroke-width="4"/>
      <circle cx="250" cy="250" r="196" fill="none" stroke="#f4c885" stroke-opacity="0.12" stroke-width="2"/>
      <circle cx="250" cy="250" r="188" fill="none" stroke="#7ed2b4" stroke-width="2" stroke-dasharray="9 16" opacity="0.45"/>

      <path d="M180 200C180 140 320 140 320 200C320 272 282 295 266 360L250 393L234 360C218 295 180 272 180 200Z" fill="url(#burntMetal)" stroke="#120b08" stroke-width="4"/>
      <path d="M193 203C193 154 307 154 307 203C307 259 277 281 264 342L250 369L236 342C223 281 193 259 193 203Z" fill="#24150f" opacity="0.34"/>

      <path d="M180 190C119 190 62 162 41 112C92 139 151 149 195 160" fill="none" stroke="url(#burntMetal)" stroke-width="16" stroke-linecap="round"/>
      <path d="M320 190C381 190 438 162 459 112C408 139 349 149 305 160" fill="none" stroke="url(#burntMetal)" stroke-width="16" stroke-linecap="round"/>

      <polygon points="205,240 226,245 214,257" fill="#7ed2b4" filter="url(#techGlow)"/>
      <polygon points="295,240 274,245 286,257" fill="#7ed2b4" filter="url(#techGlow)"/>

      <path d="M250 141L250 202M230 170L211 170L205 191M270 170L289 170L295 191" fill="none" stroke="#7ed2b4" stroke-width="2.5" stroke-linecap="round" stroke-linejoin="round" opacity="0.85"/>
      <path d="M147 349H353L374 378L353 407H147L126 378L147 349Z" fill="#120b08" stroke="#d5752d" stroke-width="4" stroke-linejoin="round"/>

      <text x="250" y="96" font-family="Georgia, serif" font-size="72" font-weight="700" fill="#f6ead7" text-anchor="middle" letter-spacing="6">RDR</text>
      <text x="250" y="390" font-family="Verdana, Geneva, sans-serif" font-size="34" font-weight="700" fill="#f6dfb7" text-anchor="middle" letter-spacing="4.5">AGENTIC ERA</text>
    </g>

    <path d="M474 96H1534" stroke="#f4c885" stroke-opacity="0.25" stroke-width="2"/>
    <path d="M474 428H1534" stroke="#f4c885" stroke-opacity="0.18" stroke-width="2"/>
    <path d="M1298 96H1386L1418 124H1534" stroke="#7ed2b4" stroke-width="4" stroke-linecap="round" stroke-linejoin="round"/>
    <circle cx="1298" cy="96" r="7" fill="#f4c885"/>
    <circle cx="1534" cy="124" r="7" fill="#7ed2b4"/>

    <text x="474" y="142" font-family="Verdana, Geneva, sans-serif" font-size="24" font-weight="700" fill="#f4c885" letter-spacing="8">
      AUTONOMOUS WESTERN ARENA
    </text>

    <text x="474" y="242" font-family="Georgia, serif" font-size="116" font-weight="700" fill="url(#sandText)" stroke="#6f2a16" stroke-width="8" paint-order="stroke fill" letter-spacing="4">
      RED DEAD
    </text>
    <text x="474" y="346" font-family="Georgia, serif" font-size="116" font-weight="700" fill="url(#sandText)" stroke="#6f2a16" stroke-width="8" paint-order="stroke fill" letter-spacing="3">
      REDEMPTION
    </text>

    <path d="M478 370H1224L1262 406L1224 442H478L440 406L478 370Z" fill="#120b08" stroke="#d5752d" stroke-width="4" stroke-linejoin="round"/>
    <text x="851" y="419" font-family="Verdana, Geneva, sans-serif" font-size="38" font-weight="700" fill="#f6dfb7" text-anchor="middle" letter-spacing="10">
      AGENTIC ERA
    </text>

    <text x="474" y="478" font-family="Verdana, Geneva, sans-serif" font-size="22" fill="#dcccb7" letter-spacing="4">
      X LAYER • ONCHAINOS • MANUAL // AUTOPILOT
    </text>
  </g>
</svg>
